<svg width="50" height="50" viewBox="0 0 50 50" fill="none" xmlns="http://www.w3.org/2000/svg">
<rect width="50" height="50" rx="15" fill="#F44571"/>
<path d="M35 25C35 30.5228 30.5228 35 25 35C19.4772 35 15 30.5228 15 25C15 19.4772 19.4772 15 25 15C30.5228 15 35 19.4772 35 25ZM18.9492 25C18.9492 28.3418 21.6582 31.0508 25 31.0508C28.3418 31.0508 31.0508 28.3418 31.0508 25C31.0508 21.6582 28.3418 18.9492 25 18.9492C21.6582 18.9492 18.9492 21.6582 18.9492 25Z" fill="#25252F"/>
<path d="M24.567 6.75C24.7594 6.41667 25.2406 6.41667 25.433 6.75L28.0311 11.25C28.2235 11.5833 27.983 12 27.5981 12H22.4019C22.017 12 21.7765 11.5833 21.9689 11.25L24.567 6.75Z" fill="#25252F"/>
<path d="M25.433 43.25C25.2406 43.5833 24.7594 43.5833 24.567 43.25L21.9689 38.75C21.7765 38.4167 22.017 38 22.4019 38H27.5981C27.983 38 28.2235 38.4167 28.0311 38.75L25.433 43.25Z" fill="#25252F"/>
<path d="M6.75 25.433C6.41667 25.2406 6.41667 24.7594 6.75 24.567L11.25 21.9689C11.5833 21.7765 12 22.017 12 22.4019V27.5981C12 27.983 11.5833 28.2235 11.25 28.0311L6.75 25.433Z" fill="#25252F"/>
<path d="M11.0526 11.6649C10.953 11.2932 11.2932 10.953 11.6649 11.0526L16.684 12.3974C17.0558 12.4971 17.1804 12.9618 16.9082 13.234L13.234 16.9082C12.9618 17.1804 12.4971 17.0558 12.3974 16.684L11.0526 11.6649Z" fill="#25252F"/>
<path d="M38.6486 11.0526C39.0204 10.953 39.3606 11.2932 39.261 11.6649L37.9162 16.684C37.8165 17.0558 37.3518 17.1804 37.0796 16.9082L33.4054 13.234C33.1332 12.9618 33.2578 12.4971 33.6296 12.3974L38.6486 11.0526Z" fill="#25252F"/>
<path d="M11.6648 39.2611C11.293 39.3608 10.9528 39.0205 11.0525 38.6488L12.3973 33.6297C12.4969 33.2579 12.9617 33.1334 13.2338 33.4055L16.9081 37.0798C17.1802 37.3519 17.0557 37.8167 16.6839 37.9163L11.6648 39.2611Z" fill="#25252F"/>
<path d="M39.2611 38.6488C39.3608 39.0206 39.0206 39.3608 38.6488 39.2611L33.6297 37.9163C33.2579 37.8167 33.1334 37.3519 33.4055 37.0798L37.0798 33.4055C37.3519 33.1334 37.8167 33.2579 37.9163 33.6297L39.2611 38.6488Z" fill="#25252F"/>
<path d="M43.25 24.567C43.5833 24.7594 43.5833 25.2406 43.25 25.433L38.75 28.0311C38.4167 28.2235 38 27.983 38 27.5981V22.4019C38 22.017 38.4167 21.7765 38.75 21.9689L43.25 24.567Z" fill="#25252F"/>
</svg>
